# xmcd
#
# Track frame offsets:
#	150
#	23625
#	46622
#	67607
#	83292
#	102440
#
# Disc length: 1612 seconds
#
# Revision: 1
# Processed by: cddbd v1.5.1PL0 Copyright (c) Steve Scherf et al.
# Submitted via: audiograbber 1.83.01
#
DISCID=30064a06
DTITLE=Betty Carter - It's Not About the Melody
DYEAR=1992
DGENRE=Blues
TTITLE0=Naima's Love Song
TTITLE1=Stay as Sweet as You Are
TTITLE2=Make Him Believe
TTITLE3=I Should Care
TTITLE4=You Go To My Head
TTITLE5=In the Still of the Night
EXTD=
EXTT0=
EXTT1=
EXTT2=
EXTT3=
EXTT4=
EXTT5=
PLAYORDER=
